PathFileType	4	(X/Y/Z)	C:\Users\Basilio\Documents\Thesis Gigler\squatting_fais\c3dfiles\058\SJ_pre5\markers_experimental.trc
DataRate	CameraRate	NumFrames	NumMarkers	Units	OrigDataRate	OrigDataStartFrame	OrigNumFrames
200.000000	200.000000	4	61	mm	200.000000	926	1235
Frame#	Time	FHD			LBHD			RBHD			C7			T10			CLAV			LSHO			LUUPA			LMUPA			LDUPA			LLEP			LMEP			LRAD			LUL			LRFIN			RSHO			RUPA1			RMUPA			RDUPA			RLEP			RMEP			RRAD			RUL			RUFIN			LASI			RASI			USACR			LSACR			RSACR			LTHI1			LTHI2			LTHI3			LTHI4			LLFC			LMFC			LTIB1			LTIB2			LTIB3			LTIB4			LLMAL			LMMAL			LHEE			LMT1			LMT2			LMT5			RTHI			RTHI2			RTHI3			RTHI4			RLFC			RMFC			RTIB1			RTIB2			RTIB3			RTIB4			RLMAL			RMMAL			RHEE			RMT1			RMT2			RMT5			
		X1	Y1	Z1	X2	Y2	Z2	X3	Y3	Z3	X4	Y4	Z4	X5	Y5	Z5	X6	Y6	Z6	X7	Y7	Z7	X8	Y8	Z8	X9	Y9	Z9	X10	Y10	Z10	X11	Y11	Z11	X12	Y12	Z12	X13	Y13	Z13	X14	Y14	Z14	X15	Y15	Z15	X16	Y16	Z16	X17	Y17	Z17	X18	Y18	Z18	X19	Y19	Z19	X20	Y20	Z20	X21	Y21	Z21	X22	Y22	Z22	X23	Y23	Z23	X24	Y24	Z24	X25	Y25	Z25	X26	Y26	Z26	X27	Y27	Z27	X28	Y28	Z28	X29	Y29	Z29	X30	Y30	Z30	X31	Y31	Z31	X32	Y32	Z32	X33	Y33	Z33	X34	Y34	Z34	X35	Y35	Z35	X36	Y36	Z36	X37	Y37	Z37	X38	Y38	Z38	X39	Y39	Z39	X40	Y40	Z40	X41	Y41	Z41	X42	Y42	Z42	X43	Y43	Z43	X44	Y44	Z44	X45	Y45	Z45	X46	Y46	Z46	X47	Y47	Z47	X48	Y48	Z48	X49	Y49	Z49	X50	Y50	Z50	X51	Y51	Z51	X52	Y52	Z52	X53	Y53	Z53	X54	Y54	Z54	X55	Y55	Z55	X56	Y56	Z56	X57	Y57	Z57	X58	Y58	Z58	X59	Y59	Z59	X60	Y60	Z60	X61	Y61	Z61	

927	4.63	-148.7160949707032	1780.9443359375	-835.2696533203127	-294.3719482421876	1704.682373046875	-911.0404052734377	-138.6257781982422	1793.02734375	-977.727478027344	-307.0992736816407	1578.217407226563	-923.2554321289065	-342.7714233398438	1269.43798828125	-908.9373168945315	-140.7948913574219	1523.680419921875	-911.059020996094	-166.9710388183594	1581.7705078125	-1080.937622070313	-324.5768127441407	1473.022338867188	-1220.954223632813	-300.4189453125001	1430.835693359375	-1231.313232421875	-355.8796691894532	1416.060546875	-1250.890747070313	-394.7542114257814	1344.673095703125	-1275.574340820313	-442.1778564453126	1341.493896484375	-1214.775146484375	-331.4862670898438	1144.385009765625	-1098.3662109375	-307.3691406250001	1097.613403320313	-1160.833862304688	-255.3937530517579	1162.586791992188	-1098.747802734375	-180.7796936035157	1597.1181640625	-744.6885986328126	-326.6667785644532	1482.204956054688	-595.8527221679689	-298.2886657714844	1440.773681640625	-591.5971679687501	-346.1473083496094	1423.102783203125	-561.9207153320314	-382.6178894042969	1367.656005859375	-534.1749267578126	-439.2377929687501	1348.228149414063	-601.9914550781251	-296.1739807128907	1165.573974609375	-689.6646728515626	-280.8753662109376	1120.292846679688	-624.1587524414064	-222.737289428711	1140.398071289063	-710.6218261718751	-191.8868713378907	1042.93603515625	-1025.930297851563	-186.0730438232422	1051.646850585938	-790.060729980469	-364.8420410156251	1152.120361328125	-897.9595947265627	-377.0742797851563	1121.144775390625	-924.3648071289065	-373.5595092773438	1121.849609375	-867.159606933594	-270.8354492187501	770.718444824219	-1123.639404296875	-246.2913055419922	689.3374023437501	-1129.245239257813	-200.0294494628907	686.2395019531251	-1108.6845703125	-277.5736389160157	638.3730468750001	-1121.383911132813	-279.8088073730469	539.7721557617189	-1121.541015625	-246.3560791015626	518.1738891601564	-1001.143981933594	-237.3530883789063	395.3790893554689	-1108.03173828125	-302.3913879394532	373.8225708007813	-1160.11279296875	-262.7534790039063	358.5354614257813	-1142.782836914063	-273.4068908691407	275.0256042480469	-1126.168579101563	-367.1801452636719	91.86476898193361	-1149.623291015625	-327.4825744628907	95.10528564453126	-1063.08740234375	-422.6307678222657	50.92052459716798	-1092.660522460938	-198.6206054687501	61.92285156250001	-1123.008544921875	-204.5641021728516	61.45174407958986	-1169.915771484375	-262.7840270996094	36.38621902465821	-1213.935546875	-301.9440612792969	853.012390136719	-696.1484375000001	-266.0910644531251	797.4612426757815	-689.0201416015626	-233.2094268798829	796.3262329101565	-693.4260253906251	-297.5351867675782	718.5820312500001	-699.5037231445314	-294.6730651855469	539.0506591796876	-701.1952514648439	-250.5452575683594	510.4055175781251	-826.2611083984377	-248.1089935302735	322.9444580078126	-753.9282836914064	-302.0871887207032	256.3854980468751	-686.0308837890626	-264.3215026855469	244.9105529785157	-712.2567138671876	-270.7876892089844	196.6167449951172	-741.5026245117189	-343.2602539062501	95.35428619384767	-699.3085327148439	-295.0906982421876	104.0546264648438	-780.744323730469	-392.4532470703126	48.69211959838869	-767.8457641601564	-178.8996734619141	57.09675216674806	-715.1749877929689	-191.7664184570313	61.69054794311525	-664.8636474609376	-247.248519897461	28.69046020507813	-623.5479736328126	
928	4.635	-150.1114959716797	1781.274780273438	-834.9348144531252	-295.4718322753907	1704.892822265625	-910.792663574219	-139.4945220947266	1793.258178710938	-977.6425781250002	-307.9534301757813	1577.88232421875	-923.044372558594	-342.6049499511719	1269.08544921875	-908.863708496094	-141.3158416748047	1524.146484375	-910.733581542969	-167.2261199951172	1582.046752929688	-1080.789794921875	-324.2768554687501	1472.81884765625	-1221.050537109375	-300.3114624023438	1430.54150390625	-1231.238647460938	-355.6154174804688	1415.489868164063	-1250.852294921875	-394.4319763183595	1344.03955078125	-1275.52490234375	-441.7483215332032	1340.784301757813	-1214.765625	-330.3998413085938	1143.86572265625	-1098.3125	-306.0942382812501	1097.117431640625	-1160.585815429688	-254.2364654541016	1162.170166015625	-1098.262084960938	-181.6364288330078	1597.099853515625	-744.3096313476564	-327.8108520507813	1481.877197265625	-595.9087524414064	-299.0424804687501	1440.641967773438	-591.2822265625001	-347.2815551757813	1422.712768554688	-561.7425537109376	-383.1264343261719	1367.029418945313	-534.3104248046876	-439.5285949707032	1347.135375976563	-601.9332885742189	-295.7487182617188	1165.324829101563	-689.3678588867189	-280.1095581054688	1120.272827148438	-623.8233642578126	-222.1120758056641	1140.525390625	-710.4415893554689	-191.3156433105469	1042.946411132813	-1025.747924804688	-185.243896484375	1051.539184570313	-789.8342895507815	-364.4174804687501	1152.056274414063	-897.847595214844	-376.4850463867188	1120.883178710938	-924.226989746094	-373.1129760742188	1121.528076171875	-867.0715942382815	-271.3830566406251	770.9305419921877	-1123.130859375	-247.4823608398438	689.4769897460939	-1128.499145507813	-201.1573333740235	686.2004394531251	-1108.056030273438	-278.9565124511719	638.7188110351564	-1120.68310546875	-281.0892333984376	539.9414672851564	-1120.842529296875	-246.6312561035157	519.8753662109376	-1000.268493652344	-238.6992797851563	395.948699951172	-1107.567993164063	-303.6452941894532	373.9460144042969	-1159.541381835938	-264.0278625488282	358.8258972167969	-1142.298583984375	-274.3011779785157	274.9896545410157	-1125.907836914063	-367.2381286621094	91.79795837402345	-1149.55078125	-327.5455627441407	95.03987884521486	-1063.025268554688	-422.6141662597657	50.90983963012697	-1092.665893554688	-198.5798645019532	61.9984703063965	-1122.985717773438	-204.5631866455079	61.48424148559572	-1169.901245117188	-262.8044128417969	36.37529754638673	-1213.922973632813	-301.7364196777344	853.411315917969	-696.0741577148439	-266.2902526855469	797.6765747070315	-689.0032348632814	-233.3426971435547	796.168884277344	-693.5795288085939	-297.8286132812501	718.9333496093751	-699.6198120117189	-296.4901733398438	539.3130493164064	-701.2851562500001	-252.0879364013672	510.511688232422	-826.8001098632815	-249.0973052978516	323.1523742675782	-754.0332641601564	-302.9397583007813	256.5136413574219	-686.0739135742189	-264.8574523925782	245.0157775878907	-712.3771362304689	-271.7249450683594	196.6032714843751	-741.5015869140626	-343.3658447265626	95.21912384033205	-699.2780151367189	-295.2460937500001	104.0256805419922	-780.7368164062502	-392.5307617187501	48.59542846679689	-767.8188476562501	-178.8926239013672	57.09103393554689	-715.1762695312501	-191.797607421875	61.66329193115236	-664.8619384765626	-247.2395782470704	28.69610595703126	-623.5498046875001	
929	4.64	-150.7306671142578	1781.689086914063	-834.9321289062502	-296.0218505859376	1704.983154296875	-910.7415161132815	-140.4975280761719	1793.568359375	-977.506042480469	-308.6886901855469	1577.447875976563	-922.9631347656252	-342.4370727539063	1268.447998046875	-908.7579345703127	-141.8302307128907	1524.30517578125	-910.4004516601565	-167.702392578125	1582.471801757813	-1080.568603515625	-324.1711120605469	1472.423461914063	-1221.107788085938	-300.1689147949219	1430.233276367188	-1231.276733398438	-355.3983764648438	1414.875366210938	-1250.79638671875	-393.732879638672	1343.216186523438	-1275.466186523438	-441.584930419922	1339.912719726563	-1214.725830078125	-329.4927368164063	1143.592895507813	-1098.219360351563	-304.8401794433594	1096.873413085938	-1160.298095703125	-253.3135528564454	1162.084228515625	-1098.060302734375	-182.7723846435547	1597.289428710938	-743.5212402343751	-328.9967651367188	1481.321533203125	-595.9611816406251	-300.1122131347657	1440.268676757813	-591.0551147460939	-348.4886779785157	1422.214721679688	-561.0784301757814	-383.6883239746094	1366.203735351563	-534.2192382812501	-439.7176513671876	1346.083862304688	-601.8737182617189	-295.4570312500001	1165.004760742188	-689.1394042968751	-279.1043090820313	1119.880126953125	-623.5395507812501	-221.3938446044922	1140.474975585938	-710.2606811523439	-190.717025756836	1042.875122070313	-1025.541870117188	-184.8418579101563	1051.518798828125	-789.5986938476565	-364.0123291015626	1151.914672851563	-897.690612792969	-375.9837341308594	1120.476196289063	-924.1214599609377	-372.6151428222657	1121.315673828125	-866.9895629882815	-272.0211181640626	771.1197509765627	-1122.713623046875	-248.1314544677735	689.5054321289064	-1128.027099609375	-201.8832702636719	686.1884155273439	-1107.659423828125	-280.0281677246094	639.0811157226564	-1120.146850585938	-282.5339965820313	540.0770874023439	-1120.21044921875	-247.6582183837891	519.8783569335939	-999.7702636718752	-239.8971252441407	396.821990966797	-1107.818237304688	-304.7365417480469	374.0324401855469	-1159.200439453125	-265.0046997070313	359.2734985351563	-1141.970703125	-274.5668334960938	275.2052001953126	-1125.775024414063	-367.3559875488282	91.73037719726564	-1149.483154296875	-327.5610351562501	95.00518035888673	-1062.9775390625	-422.6958618164064	50.89655685424806	-1092.711181640625	-198.6288299560547	61.94605255126955	-1122.987426757813	-204.5435943603516	61.55250549316408	-1169.846313476563	-262.5862731933594	36.09813308715821	-1214.017578125	-301.7616882324219	853.718444824219	-696.0051879882814	-266.3120117187501	797.8164672851565	-689.0895385742189	-233.5183258056641	796.2381591796877	-693.7133789062501	-298.3500061035157	719.3643798828126	-699.6803588867189	-297.5096130371094	539.4588012695314	-701.5336303710939	-253.5698394775391	510.5660705566407	-827.1567993164065	-249.9226684570313	322.8832092285157	-754.3397216796876	-303.4411010742188	256.6346435546876	-686.1900634765626	-265.3009338378907	245.1408386230469	-712.5881347656251	-272.3763122558594	196.9156646728516	-741.6182861328126	-343.5105590820313	95.11194610595705	-699.2617187500001	-295.4305419921876	103.9501571655274	-780.7713623046877	-392.6169433593751	48.45870971679689	-767.7420043945314	-178.956039428711	57.05639266967775	-715.1640014648439	-191.8761138916016	61.68359375000001	-664.8722534179689	-246.7588500976563	28.75885772705079	-623.3962402343751	
930	4.645	-151.5833129882813	1781.895874023438	-834.8106689453127	-297.1715698242188	1704.829467773438	-910.5552978515627	-141.3484802246094	1793.630493164063	-977.429382324219	-309.4001770019532	1576.967529296875	-922.8472290039065	-342.4002685546876	1267.799194335938	-908.6746826171877	-142.1945037841797	1524.43994140625	-910.086608886719	-168.4662780761719	1582.547973632813	-1080.4111328125	-324.2415771484376	1471.9775390625	-1221.032104492188	-300.0878295898438	1429.892578125	-1231.271850585938	-355.2777709960938	1414.2080078125	-1250.840087890625	-393.1759033203126	1342.554565429688	-1275.433227539063	-441.0842285156251	1339.080688476563	-1214.791870117188	-328.7301330566407	1143.09228515625	-1098.059448242188	-303.6132507324219	1096.427734375	-1159.98828125	-252.6095581054688	1161.81591796875	-1097.814575195313	-183.847396850586	1597.292602539063	-743.0840454101564	-330.2230529785157	1480.810424804688	-595.9408569335939	-301.3774108886719	1439.781616210938	-590.8160400390626	-349.1011962890626	1421.743408203125	-560.9204711914064	-384.3458251953126	1365.527709960938	-533.8131713867189	-439.874481201172	1345.027954101563	-601.8065185546876	-294.9376220703126	1164.685424804688	-688.8182983398439	-278.0056152343751	1119.814819335938	-623.2325439453126	-221.0526580810547	1140.418090820313	-710.1009521484376	-190.0834655761719	1042.879638671875	-1025.322387695313	-184.2518615722657	1051.849609375	-789.402526855469	-363.5575256347657	1151.541137695313	-897.5112304687502	-375.5301818847657	1120.185302734375	-923.9216918945315	-372.1940612792969	1120.971435546875	-866.8332519531252	-272.4910583496094	771.2842407226565	-1122.3623046875	-248.8821716308594	689.5692138671876	-1127.607421875	-202.5866088867188	686.1672973632814	-1107.352783203125	-281.0632324218751	639.3435668945314	-1119.660522460938	-283.6885681152344	540.2683105468751	-1119.6806640625	-248.918441772461	519.9304809570314	-999.0972900390627	-241.323471069336	396.7839355468751	-1107.3310546875	-305.7297363281251	374.1151123046876	-1158.8740234375	-265.8616027832032	359.5077514648438	-1141.717651367188	-275.4689636230469	275.5005493164063	-1125.44189453125	-367.4282226562501	91.71540832519533	-1149.378173828125	-327.6098327636719	94.95635986328126	-1062.961303710938	-422.6934814453126	50.81343460083009	-1092.702270507813	-198.703842163086	61.96167755126955	-1122.977905273438	-204.5114746093751	61.58209228515626	-1169.891357421875	-262.7838134765626	36.39591598510743	-1213.928955078125	-301.6098022460938	853.955749511719	-695.9451293945314	-266.3128662109376	798.0654907226565	-689.1505737304689	-233.5543975830079	796.2446899414065	-693.8343505859376	-298.9393920898438	719.7395019531251	-699.7183227539064	-299.0463256835938	539.7321777343751	-701.7908325195314	-255.0722656250001	510.6456604003907	-827.5393676757815	-250.8236236572266	323.2232360839844	-754.5821533203126	-304.0645141601563	256.6138610839844	-686.2843627929689	-266.0932006835938	245.2068328857422	-712.7200927734376	-272.7302856445313	197.0567779541016	-741.7935791015626	-343.6864318847657	95.00315093994142	-699.2460937500001	-295.4982604980469	103.8820114135742	-780.8125610351565	-392.6091918945314	48.38824844360353	-767.7445068359376	-178.9427795410157	57.05555343627931	-715.1391601562501	-191.8755493164063	61.72531509399415	-664.8447265625001	-246.7258300781251	28.7248764038086	-623.3964843750001	
